<svg id="visual" viewBox="0 0 900 600" width="900" height="600" xmlns="http://www.w3.org/2000/svg" xmlns:xlink="http://www.w3.org/1999/xlink" version="1.1"><rect width="900" height="600" fill="#001829"></rect><g><g transform="translate(626 560)"><path d="M0 -147L103.9 -103.9L147 0L103.9 103.9L0 147L-103.9 103.9L-147 0L-103.9 -103.9Z" fill="#297EA6"></path></g><g transform="translate(298 408)"><path d="M0 -110L77.8 -77.8L110 0L77.8 77.8L0 110L-77.8 77.8L-110 0L-77.8 -77.8Z" fill="#297EA6"></path></g><g transform="translate(883 222)"><path d="M0 -120L84.9 -84.9L120 0L84.9 84.9L0 120L-84.9 84.9L-120 0L-84.9 -84.9Z" fill="#297EA6"></path></g><g transform="translate(590 108)"><path d="M0 -78L55.2 -55.2L78 0L55.2 55.2L0 78L-55.2 55.2L-78 0L-55.2 -55.2Z" fill="#297EA6"></path></g><g transform="translate(27 125)"><path d="M0 -99L70 -70L99 0L70 70L0 99L-70 70L-99 0L-70 -70Z" fill="#297EA6"></path></g><g transform="translate(19 555)"><path d="M0 -117L82.7 -82.7L117 0L82.7 82.7L0 117L-82.7 82.7L-117 0L-82.7 -82.7Z" fill="#297EA6"></path></g></g></svg>